<svg width="73" height="20" viewBox="0 0 73 20" fill="none" xmlns="http://www.w3.org/2000/svg">
<path d="M0.849039 9.96C0.849039 8.928 1.04104 8.022 1.42504 7.242C1.82104 6.462 2.35504 5.862 3.02704 5.442C3.69904 5.022 4.44904 4.812 5.27704 4.812C5.98504 4.812 6.60304 4.956 7.13104 5.244C7.67104 5.532 8.08504 5.91 8.37304 6.378V4.956H11.451V15H8.37304V13.578C8.07304 14.046 7.65304 14.424 7.11304 14.712C6.58504 15 5.96704 15.144 5.25904 15.144C4.44304 15.144 3.69904 14.934 3.02704 14.514C2.35504 14.082 1.82104 13.476 1.42504 12.696C1.04104 11.904 0.849039 10.992 0.849039 9.96ZM8.37304 9.978C8.37304 9.21 8.15704 8.604 7.72504 8.16C7.30504 7.716 6.78904 7.494 6.17704 7.494C5.56504 7.494 5.04304 7.716 4.61104 8.16C4.19104 8.592 3.98104 9.192 3.98104 9.96C3.98104 10.728 4.19104 11.34 4.61104 11.796C5.04304 12.24 5.56504 12.462 6.17704 12.462C6.78904 12.462 7.30504 12.24 7.72504 11.796C8.15704 11.352 8.37304 10.746 8.37304 9.978ZM15.4958 3.912C14.9558 3.912 14.5118 3.756 14.1638 3.444C13.8278 3.12 13.6598 2.724 13.6598 2.256C13.6598 1.776 13.8278 1.38 14.1638 1.068C14.5118 0.743999 14.9558 0.581999 15.4958 0.581999C16.0238 0.581999 16.4558 0.743999 16.7918 1.068C17.1398 1.38 17.3138 1.776 17.3138 2.256C17.3138 2.724 17.1398 3.12 16.7918 3.444C16.4558 3.756 16.0238 3.912 15.4958 3.912ZM17.0258 4.956V15H13.9478V4.956H17.0258ZM22.6044 6.63C22.9644 6.078 23.4144 5.646 23.9544 5.334C24.4944 5.01 25.0944 4.848 25.7544 4.848V8.106H24.9084C24.1404 8.106 23.5644 8.274 23.1804 8.61C22.7964 8.934 22.6044 9.51 22.6044 10.338V15H19.5264V4.956H22.6044V6.63ZM30.5736 6.378C30.8736 5.91 31.2876 5.532 31.8156 5.244C32.3436 4.956 32.9616 4.812 33.6696 4.812C34.4976 4.812 35.2476 5.022 35.9196 5.442C36.5916 5.862 37.1196 6.462 37.5036 7.242C37.8996 8.022 38.0976 8.928 38.0976 9.96C38.0976 10.992 37.8996 11.904 37.5036 12.696C37.1196 13.476 36.5916 14.082 35.9196 14.514C35.2476 14.934 34.4976 15.144 33.6696 15.144C32.9736 15.144 32.3556 15 31.8156 14.712C31.2876 14.424 30.8736 14.052 30.5736 13.596V19.788H27.4956V4.956H30.5736V6.378ZM34.9656 9.96C34.9656 9.192 34.7496 8.592 34.3176 8.16C33.8976 7.716 33.3756 7.494 32.7516 7.494C32.1396 7.494 31.6176 7.716 31.1856 8.16C30.7656 8.604 30.5556 9.21 30.5556 9.978C30.5556 10.746 30.7656 11.352 31.1856 11.796C31.6176 12.24 32.1396 12.462 32.7516 12.462C33.3636 12.462 33.8856 12.24 34.3176 11.796C34.7496 11.34 34.9656 10.728 34.9656 9.96ZM43.0604 1.68V15H39.9824V1.68H43.0604ZM44.949 9.96C44.949 8.928 45.141 8.022 45.525 7.242C45.921 6.462 46.455 5.862 47.127 5.442C47.799 5.022 48.549 4.812 49.377 4.812C50.085 4.812 50.703 4.956 51.231 5.244C51.771 5.532 52.185 5.91 52.473 6.378V4.956H55.551V15H52.473V13.578C52.173 14.046 51.753 14.424 51.213 14.712C50.685 15 50.067 15.144 49.359 15.144C48.543 15.144 47.799 14.934 47.127 14.514C46.455 14.082 45.921 13.476 45.525 12.696C45.141 11.904 44.949 10.992 44.949 9.96ZM52.473 9.978C52.473 9.21 52.257 8.604 51.825 8.16C51.405 7.716 50.889 7.494 50.277 7.494C49.665 7.494 49.143 7.716 48.711 8.16C48.291 8.592 48.081 9.192 48.081 9.96C48.081 10.728 48.291 11.34 48.711 11.796C49.143 12.24 49.665 12.462 50.277 12.462C50.889 12.462 51.405 12.24 51.825 11.796C52.257 11.352 52.473 10.746 52.473 9.978ZM68.3078 4.956L62.0078 19.77H58.6958L60.9998 14.658L56.9138 4.956H60.3518L62.6738 11.238L64.9778 4.956H68.3078ZM71.1309 15.144C70.5909 15.144 70.1469 14.988 69.7989 14.676C69.4629 14.352 69.2949 13.956 69.2949 13.488C69.2949 13.008 69.4629 12.606 69.7989 12.282C70.1469 11.958 70.5909 11.796 71.1309 11.796C71.6589 11.796 72.0909 11.958 72.4269 12.282C72.7749 12.606 72.9489 13.008 72.9489 13.488C72.9489 13.956 72.7749 14.352 72.4269 14.676C72.0909 14.988 71.6589 15.144 71.1309 15.144Z" fill="#D26709"/>
</svg>
